#N canvas 7 23 1262 741 10;
#X obj 100 100 cnv 15 200 250 empty empty Stammler 58 12 1 20 -47609
-261682 0;
#X obj 110 129 cnv 15 180 60 empty empty empty 20 12 0 14 -262144 -66577
0;
#N canvas 0 22 450 278 (subpatch) 0;
#X array stmSample 1.23804e+06 float 2;
#X coords 0 1 1.23804e+06 -1 180 60 1 0 0;
#X restore 110 129 graph;
#X obj 113 189 hsl 175 8 0 1 0 0 empty stmTransport empty -2 -8 0 10
-221146 -1 -1 6960 1;
#X obj 112 217 bng 25 250 50 0 empty empty LoadFile 0 -7 0 10 -204800
-1 -261682;
#X obj 189 216 bng 25 250 50 0 empty empty TestPlay 0 -7 0 10 -204786
-1 -261682;
#X obj 261 216 bng 25 250 50 0 empty empty Stop 0 -7 0 10 -261234 -1
-261682;
#X obj 111 262 tgl 40 0 empty empty On/off 0 -7 0 10 -259795 -1 -261682
0 1;
#X obj 151 262 vradio 20 1 0 2 empty stmState empty 0 -8 0 10 -232576
-1 -1 1;
#X obj 263 264 vsl 20 70 0 5 0 0 empty empty Level 0 -9 0 10 -262130
-1 -261682 2300 1;
#X obj 137 771 outlet~;
#X obj 1054 766 outlet~;
#X obj 108 365 openpanel;
#X obj 108 421 soundfiler;
#X msg 108 395 read -resize \$1 stmSample;
#X floatatom 108 447 15 0 0 0 - - stmSampleSize;
#X text 207 446 Length in samples;
#X obj 538 353 tabread4~ stmSample;
#X obj 138 739 *~;
#X obj 543 711 line~;
#X obj 543 689 pack f 20;
#X obj 1054 731 *~;
#X obj 538 225 *;
#X obj 363 346 s stmTransport;
#X obj 362 322 line;
#X msg 362 299 0 \, 1 \$1;
#X obj 362 265 expr ($f1/48000)*1000;
#X obj 538 327 line~;
#X obj 569 201 select 1;
#X msg 569 224 0;
#X obj 436 297 pipe 20;
#X msg 437 320 0 20;
#X msg 569 173 1;
#X obj 540 402 spigot~;
#X obj 579 379 tgl 15 0 empty empty empty 17 7 0 10 -262144 -1 -1 0
1;
#X obj 610 402 spigot~;
#X obj 649 379 tgl 15 0 empty empty empty 17 7 0 10 -262144 -1 -1 1
1;
#X obj 594 535 freeverb~;
#X obj 651 182 select 0 1;
#X obj 651 206 t b b;
#X obj 694 206 t b b;
#X msg 651 230 1;
#X msg 679 230 0;
#X msg 707 230 0;
#X msg 736 230 1;
#X msg 741 421 wet 1;
#X msg 741 443 dry 0;
#X obj 970 85 loadbang;
#X obj 946 86 bng 15 250 50 0 empty empty empty 17 7 0 10 -262144 -1
-1;
#X obj 641 440 bp~ 440;
#X msg 739 376 roomsize 0.8;
#X msg 739 398 damping 0.33;
#X obj 195 262 nbx 3 14 -1e+37 1e+37 0 0 empty empty Q 0 -8 0 10 -262144
-1 -261682 6 256;
#X msg 1037 132 2;
#N canvas 242 23 987 717 stutterlogic 0;
#X obj 124 43 inlet;
#X obj 126 564 s stmTransport;
#X obj 124 134 metro;
#X floatatom 152 109 5 0 0 0 - - -;
#X obj 303 67 inlet;
#X obj 386 68 inlet;
#X obj 215 68 inlet;
#X text 213 44 rate;
#X text 297 44 step size;
#X obj 124 207 * 0.01;
#X obj 124 165 drunk 100 2;
#X msg 348 132 0;
#X text 383 43 reset;
#X obj 346 234 f;
#X obj 401 234 f;
#X obj 346 211 t f b;
#X floatatom 346 328 5 0 0 0 - - -;
#X obj 347 262 abs;
#X obj 421 260 abs;
#X obj 494 439 s stmState;
#X obj 346 284 expr $f1-$f2 \; if(($f1-$f2) < 0 \, 0 \, 1);
#X msg 482 359 0;
#X msg 527 359 1;
#X obj 481 327 select 1;
#X connect 0 0 2 0;
#X connect 2 0 10 0;
#X connect 3 0 2 1;
#X connect 4 0 10 2;
#X connect 5 0 11 0;
#X connect 6 0 3 0;
#X connect 9 0 1 0;
#X connect 10 0 9 0;
#X connect 10 0 15 0;
#X connect 11 0 10 0;
#X connect 13 0 17 0;
#X connect 13 0 14 1;
#X connect 14 0 18 0;
#X connect 15 0 13 0;
#X connect 15 1 14 0;
#X connect 17 0 20 0;
#X connect 18 0 20 1;
#X connect 20 0 16 0;
#X connect 20 1 23 0;
#X connect 21 0 19 0;
#X connect 22 0 19 0;
#X connect 23 0 21 0;
#X connect 23 1 22 0;
#X restore -16 380 pd stutterlogic;
#X obj 361 228 r stmSampleSize;
#X obj 556 129 r stmSampleSize;
#X obj 538 306 pack f 1000;
#X obj 115 319 bng 20 250 50 0 empty empty Reset 0 -7 0 10 -260097
-1 -261682;
#X obj 195 292 nbx 3 14 -1e+37 1e+37 0 0 empty empty Stepsize 0 -8
0 10 -262144 -1 -261682 4 256;
#X obj 215 322 nbx 3 14 -1e+37 1e+37 0 0 empty empty Rate 0 -8 0 10
-262144 -1 -261682 300 256;
#X obj 150 322 nbx 5 14 -1e+37 1e+37 0 0 empty empty ParseDelay 0 -8
0 10 -262144 -1 -261682 1000 256;
#X msg 1032 167 2;
#X msg 1070 167 100;
#X floatatom 600 278 5 0 0 0 - - -;
#X msg 600 249 50;
#X obj 8 293 select 1;
#X obj 8 321 bng 15 250 50 0 empty empty empty 17 7 0 10 -262144 -1
-1;
#X msg 978 310 1000;
#X obj 971 107 t b b b b b b b b b;
#X obj 1093 275 s stmState;
#X msg 1091 245 0;
#X obj 980 262 select 1;
#X connect 3 0 22 0;
#X connect 3 0 28 0;
#X connect 4 0 12 0;
#X connect 5 0 15 0;
#X connect 5 0 65 0;
#X connect 6 0 32 0;
#X connect 7 0 54 0;
#X connect 7 0 72 0;
#X connect 8 0 38 0;
#X connect 9 0 20 0;
#X connect 12 0 14 0;
#X connect 13 0 15 0;
#X connect 13 0 6 0;
#X connect 14 0 13 0;
#X connect 17 0 33 0;
#X connect 17 0 35 0;
#X connect 18 0 10 0;
#X connect 19 0 18 1;
#X connect 19 0 21 1;
#X connect 20 0 19 0;
#X connect 21 0 11 0;
#X connect 22 0 57 0;
#X connect 24 0 23 0;
#X connect 25 0 24 0;
#X connect 26 0 25 0;
#X connect 27 0 17 0;
#X connect 28 0 29 0;
#X connect 28 0 30 0;
#X connect 28 0 58 0;
#X connect 29 0 27 0;
#X connect 30 0 31 0;
#X connect 31 0 24 0;
#X connect 32 0 28 0;
#X connect 33 1 18 0;
#X connect 33 1 21 0;
#X connect 34 0 33 1;
#X connect 35 1 49 0;
#X connect 36 0 35 1;
#X connect 37 0 18 0;
#X connect 37 1 21 0;
#X connect 38 0 39 0;
#X connect 38 1 40 0;
#X connect 39 0 41 0;
#X connect 39 1 42 0;
#X connect 40 0 43 0;
#X connect 40 1 44 0;
#X connect 41 0 34 0;
#X connect 42 0 36 0;
#X connect 43 0 34 0;
#X connect 44 0 36 0;
#X connect 45 0 37 0;
#X connect 46 0 37 0;
#X connect 47 0 69 0;
#X connect 48 0 69 0;
#X connect 49 0 37 0;
#X connect 49 0 37 1;
#X connect 50 0 37 0;
#X connect 51 0 37 0;
#X connect 52 0 49 2;
#X connect 53 0 52 0;
#X connect 55 0 26 0;
#X connect 56 0 22 1;
#X connect 57 0 27 0;
#X connect 58 0 54 3;
#X connect 59 0 54 2;
#X connect 60 0 54 1;
#X connect 61 0 64 0;
#X connect 62 0 59 0;
#X connect 63 0 60 0;
#X connect 64 0 57 1;
#X connect 65 0 61 0;
#X connect 66 0 67 0;
#X connect 67 0 61 0;
#X connect 68 0 61 0;
#X connect 69 0 50 0;
#X connect 69 1 51 0;
#X connect 69 2 45 0;
#X connect 69 3 46 0;
#X connect 69 4 53 0;
#X connect 69 5 62 0;
#X connect 69 6 63 0;
#X connect 69 7 68 0;
#X connect 69 8 71 0;
#X connect 71 0 70 0;
#X connect 72 0 68 0;
#X coords 0 -1 1 1 200 250 1 100 100;
